<svg xmlns="http://www.w3.org/2000/svg" width="24" height="24" fill="none"><g clip-path="url(#a)"><path fill="#fff" d="M18.41.01H15.3c-3.493 0-5.745 2.318-5.745 5.906v2.723H6.424a.488.488 0 0 0-.488.49v3.946a.49.49 0 0 0 .488.489h3.13v9.956a.49.49 0 0 0 .49.489h4.078a.49.49 0 0 0 .489-.49v-9.955h3.655a.488.488 0 0 0 .488-.49V9.13a.49.49 0 0 0-.49-.49H14.61V6.33c0-1.11.263-1.673 1.708-1.673h2.098a.488.488 0 0 0 .488-.49V.505A.49.49 0 0 0 18.41.01Z"/></g><defs><clipPath id="a"><path fill="#fff" d="M0 0h24v24H0z"/></clipPath></defs></svg>